<svg width="94" height="94" viewBox="0 0 94 94" fill="none" xmlns="http://www.w3.org/2000/svg">
<g filter="url(#filter0_d_1_30)">
<rect width="94" height="94" fill="#69B9FF"/>
<rect x="5" y="5" width="84" height="84" stroke="white" stroke-width="10"/>
<path fill-rule="evenodd" clip-rule="evenodd" d="M65.6791 25.8991L65.6378 18.6925C65.6072 13.366 61.5105 9.31608 56.1839 9.34666L37.3843 9.45461C32.0577 9.4852 28.0078 13.5819 28.0384 18.9084L28.0798 26.115C22.4686 31.1606 18.7519 38.7021 18.8005 47.1619C18.849 55.6218 22.6522 63.1201 28.3209 68.101L28.3622 75.3075C28.3928 80.6341 32.4895 84.684 37.8161 84.6534L56.6157 84.5454C61.9423 84.5148 65.9922 80.4182 65.9616 75.0916L65.9202 67.8851C71.5314 62.8394 75.2481 55.298 75.1995 46.8381C75.151 38.3782 71.3478 30.8799 65.6791 25.8991ZM34.3049 18.8724C34.2942 16.9925 35.5403 15.732 37.4202 15.7212L56.2199 15.6132C58.0999 15.6024 59.3604 16.8485 59.3712 18.7285L59.3874 21.5485C55.6167 19.6901 51.2247 18.7753 46.8381 18.8005C42.4515 18.8257 38.0703 19.7908 34.3211 21.6924L34.3049 18.8724ZM59.6951 75.1276C59.7058 77.0076 58.4597 78.2681 56.5798 78.2789L37.7801 78.3868C35.9001 78.3976 34.6396 77.1515 34.6288 75.2715L34.6126 72.4516C38.3833 74.3099 42.7753 75.2247 47.1619 75.1995C51.5485 75.1744 55.9297 74.2092 59.6789 72.3076L59.6951 75.1276ZM47.1259 68.933C34.9061 69.0032 25.1372 59.3458 25.067 47.126C24.9969 34.9062 34.6543 25.1372 46.8741 25.067C59.0939 24.9969 68.8628 34.6543 68.933 46.8741C69.0031 59.0939 59.3457 68.8628 47.1259 68.933ZM50.1261 45.7287L50.0613 34.4489C50.0505 32.5689 48.79 31.3228 46.91 31.3336C45.0301 31.3444 43.784 32.6049 43.7948 34.4849L43.8667 47.018C43.8721 47.958 44.189 48.5828 44.8193 49.2059L51.1218 55.4365C51.7521 56.0595 52.6939 56.3675 53.3205 56.3639C53.9472 56.3603 54.8854 56.0416 55.5084 55.4113C56.7546 54.1508 56.7438 52.2708 55.4833 51.0247L50.1261 45.7287Z" fill="white"/>
</g>
<defs>
<filter id="filter0_d_1_30" x="0" y="0" width="94" height="94" filterUnits="userSpaceOnUse" color-interpolation-filters="sRGB">
<feFlood flood-opacity="0" result="BackgroundImageFix"/>
<feColorMatrix in="SourceAlpha" type="matrix" values="0 0 0 0 0 0 0 0 0 0 0 0 0 0 0 0 0 0 127 0" result="hardAlpha"/>
<feOffset/>
<feColorMatrix type="matrix" values="0 0 0 0 0.180392 0 0 0 0 0.615686 0 0 0 0 1 0 0 0 1 0"/>
<feBlend mode="normal" in2="BackgroundImageFix" result="effect1_dropShadow_1_30"/>
<feBlend mode="normal" in="SourceGraphic" in2="effect1_dropShadow_1_30" result="shape"/>
</filter>
</defs>
</svg>
